<mxfile host="app.diagrams.net" agent="Mozilla/5.0 (Windows NT 10.0; Win64; x64) AppleWebKit/537.36 (KHTML, like Gecko) Chrome/134.0.0.0 Safari/537.36" version="26.1.1">
  <diagram name="Page-1" id="5DIblAubOk99xHb4Q7wx">
    <mxGraphModel dx="1034" dy="412" grid="1" gridSize="10" guides="1" tooltips="1" connect="1" arrows="1" fold="1" page="1" pageScale="1" pageWidth="827" pageHeight="1169" math="0" shadow="0">
      <root>
        <mxCell id="0" />
        <mxCell id="1" parent="0" />
        <mxCell id="TAcl22qFRfyfsYqyzIYV-2" value="User" style="swimlane;whiteSpace=wrap;html=1;movable=1;resizable=1;rotatable=1;deletable=1;editable=1;locked=0;connectable=1;" parent="1" vertex="1">
          <mxGeometry width="280" height="1160" as="geometry">
            <mxRectangle width="70" height="30" as="alternateBounds" />
          </mxGeometry>
        </mxCell>
        <mxCell id="TAcl22qFRfyfsYqyzIYV-8" style="edgeStyle=orthogonalEdgeStyle;rounded=0;orthogonalLoop=1;jettySize=auto;html=1;exitX=0.5;exitY=1;exitDx=0;exitDy=0;entryX=0.5;entryY=0;entryDx=0;entryDy=0;" parent="TAcl22qFRfyfsYqyzIYV-2" source="TAcl22qFRfyfsYqyzIYV-5" edge="1">
          <mxGeometry relative="1" as="geometry">
            <mxPoint x="140" y="120" as="targetPoint" />
          </mxGeometry>
        </mxCell>
        <mxCell id="TAcl22qFRfyfsYqyzIYV-5" value="" style="ellipse;whiteSpace=wrap;html=1;aspect=fixed;fillColor=#000000;" parent="TAcl22qFRfyfsYqyzIYV-2" vertex="1">
          <mxGeometry x="130" y="40" width="20" height="20" as="geometry" />
        </mxCell>
        <mxCell id="T9GkqMgacALuPG_M4XCp-14" style="edgeStyle=orthogonalEdgeStyle;rounded=0;orthogonalLoop=1;jettySize=auto;html=1;exitX=0.5;exitY=1;exitDx=0;exitDy=0;entryX=0.5;entryY=0;entryDx=0;entryDy=0;" edge="1" parent="TAcl22qFRfyfsYqyzIYV-2" source="TAcl22qFRfyfsYqyzIYV-16" target="T9GkqMgacALuPG_M4XCp-5">
          <mxGeometry relative="1" as="geometry" />
        </mxCell>
        <mxCell id="TAcl22qFRfyfsYqyzIYV-16" value="&lt;font style=&quot;font-size: 10px;&quot;&gt;Start Brewing Coffee&lt;/font&gt;" style="rounded=0;whiteSpace=wrap;html=1;" parent="TAcl22qFRfyfsYqyzIYV-2" vertex="1">
          <mxGeometry x="79" y="120" width="120" height="40" as="geometry" />
        </mxCell>
        <mxCell id="T9GkqMgacALuPG_M4XCp-16" style="edgeStyle=orthogonalEdgeStyle;rounded=0;orthogonalLoop=1;jettySize=auto;html=1;exitX=0.5;exitY=1;exitDx=0;exitDy=0;" edge="1" parent="TAcl22qFRfyfsYqyzIYV-2" source="T9GkqMgacALuPG_M4XCp-5" target="T9GkqMgacALuPG_M4XCp-15">
          <mxGeometry relative="1" as="geometry" />
        </mxCell>
        <mxCell id="T9GkqMgacALuPG_M4XCp-5" value="&lt;font style=&quot;font-size: 10px;&quot;&gt;See Real Time Data&lt;/font&gt;" style="rounded=0;whiteSpace=wrap;html=1;" vertex="1" parent="TAcl22qFRfyfsYqyzIYV-2">
          <mxGeometry x="79" y="240" width="120" height="40" as="geometry" />
        </mxCell>
        <mxCell id="T9GkqMgacALuPG_M4XCp-18" style="edgeStyle=orthogonalEdgeStyle;rounded=0;orthogonalLoop=1;jettySize=auto;html=1;exitX=0.5;exitY=1;exitDx=0;exitDy=0;" edge="1" parent="TAcl22qFRfyfsYqyzIYV-2" source="T9GkqMgacALuPG_M4XCp-15" target="T9GkqMgacALuPG_M4XCp-17">
          <mxGeometry relative="1" as="geometry" />
        </mxCell>
        <mxCell id="T9GkqMgacALuPG_M4XCp-15" value="&lt;font style=&quot;font-size: 10px;&quot;&gt;Take Coffee&lt;/font&gt;" style="rounded=0;whiteSpace=wrap;html=1;" vertex="1" parent="TAcl22qFRfyfsYqyzIYV-2">
          <mxGeometry x="79" y="360" width="120" height="40" as="geometry" />
        </mxCell>
        <mxCell id="T9GkqMgacALuPG_M4XCp-17" value="&lt;font style=&quot;font-size: 10px;&quot;&gt;See Warnings?&lt;/font&gt;" style="rounded=0;whiteSpace=wrap;html=1;" vertex="1" parent="TAcl22qFRfyfsYqyzIYV-2">
          <mxGeometry x="79" y="600" width="120" height="40" as="geometry" />
        </mxCell>
        <mxCell id="TAcl22qFRfyfsYqyzIYV-4" value="Database" style="swimlane;whiteSpace=wrap;html=1;movable=1;resizable=1;rotatable=1;deletable=1;editable=1;locked=0;connectable=1;" parent="1" vertex="1">
          <mxGeometry x="560" width="260" height="1160" as="geometry" />
        </mxCell>
        <mxCell id="T9GkqMgacALuPG_M4XCp-10" value="&lt;span style=&quot;font-size: 10px;&quot;&gt;Receive Event Data&amp;nbsp;&lt;/span&gt;" style="rounded=0;whiteSpace=wrap;html=1;" vertex="1" parent="TAcl22qFRfyfsYqyzIYV-4">
          <mxGeometry x="80" y="480" width="120" height="40" as="geometry" />
        </mxCell>
        <mxCell id="TAcl22qFRfyfsYqyzIYV-3" value="System" style="swimlane;whiteSpace=wrap;html=1;movable=1;resizable=1;rotatable=1;deletable=1;editable=1;locked=0;connectable=1;" parent="1" vertex="1">
          <mxGeometry x="280" width="280" height="1160" as="geometry" />
        </mxCell>
        <mxCell id="T9GkqMgacALuPG_M4XCp-3" style="edgeStyle=orthogonalEdgeStyle;rounded=0;orthogonalLoop=1;jettySize=auto;html=1;exitX=0.5;exitY=1;exitDx=0;exitDy=0;entryX=0.5;entryY=0;entryDx=0;entryDy=0;" edge="1" parent="TAcl22qFRfyfsYqyzIYV-3" source="TAcl22qFRfyfsYqyzIYV-17" target="T9GkqMgacALuPG_M4XCp-1">
          <mxGeometry relative="1" as="geometry" />
        </mxCell>
        <mxCell id="TAcl22qFRfyfsYqyzIYV-17" value="&lt;font style=&quot;font-size: 10px;&quot;&gt;Brewing Detected, &lt;br&gt;Event Started&lt;/font&gt;" style="rounded=0;whiteSpace=wrap;html=1;" parent="TAcl22qFRfyfsYqyzIYV-3" vertex="1">
          <mxGeometry x="80" y="120" width="120" height="40" as="geometry" />
        </mxCell>
        <mxCell id="T9GkqMgacALuPG_M4XCp-9" style="edgeStyle=orthogonalEdgeStyle;rounded=0;orthogonalLoop=1;jettySize=auto;html=1;exitX=0.5;exitY=1;exitDx=0;exitDy=0;entryX=0.5;entryY=0;entryDx=0;entryDy=0;" edge="1" parent="TAcl22qFRfyfsYqyzIYV-3" source="T9GkqMgacALuPG_M4XCp-1" target="T9GkqMgacALuPG_M4XCp-7">
          <mxGeometry relative="1" as="geometry" />
        </mxCell>
        <mxCell id="T9GkqMgacALuPG_M4XCp-1" value="&lt;font style=&quot;font-size: 10px;&quot;&gt;Display Real Time Data&lt;/font&gt;" style="rounded=0;whiteSpace=wrap;html=1;" vertex="1" parent="TAcl22qFRfyfsYqyzIYV-3">
          <mxGeometry x="80" y="240" width="120" height="40" as="geometry" />
        </mxCell>
        <mxCell id="T9GkqMgacALuPG_M4XCp-13" style="edgeStyle=orthogonalEdgeStyle;rounded=0;orthogonalLoop=1;jettySize=auto;html=1;exitX=0.5;exitY=1;exitDx=0;exitDy=0;entryX=0.5;entryY=0;entryDx=0;entryDy=0;" edge="1" parent="TAcl22qFRfyfsYqyzIYV-3" source="T9GkqMgacALuPG_M4XCp-7" target="T9GkqMgacALuPG_M4XCp-12">
          <mxGeometry relative="1" as="geometry" />
        </mxCell>
        <mxCell id="T9GkqMgacALuPG_M4XCp-7" value="&lt;span style=&quot;font-size: 10px;&quot;&gt;Brewing Finished, &lt;br&gt;Event Ended&lt;/span&gt;" style="rounded=0;whiteSpace=wrap;html=1;" vertex="1" parent="TAcl22qFRfyfsYqyzIYV-3">
          <mxGeometry x="80" y="360" width="120" height="40" as="geometry" />
        </mxCell>
        <mxCell id="T9GkqMgacALuPG_M4XCp-12" value="&lt;span style=&quot;font-size: 10px;&quot;&gt;Event Ended&lt;/span&gt;" style="rounded=0;whiteSpace=wrap;html=1;" vertex="1" parent="TAcl22qFRfyfsYqyzIYV-3">
          <mxGeometry x="80" y="480" width="120" height="40" as="geometry" />
        </mxCell>
        <mxCell id="TAcl22qFRfyfsYqyzIYV-7" value="Start" style="text;html=1;align=center;verticalAlign=middle;resizable=0;points=[];autosize=1;strokeColor=none;fillColor=none;" parent="1" vertex="1">
          <mxGeometry x="114" y="19" width="50" height="30" as="geometry" />
        </mxCell>
        <mxCell id="TAcl22qFRfyfsYqyzIYV-10" style="edgeStyle=orthogonalEdgeStyle;rounded=0;orthogonalLoop=1;jettySize=auto;html=1;exitX=1;exitY=0.5;exitDx=0;exitDy=0;entryX=0;entryY=0.5;entryDx=0;entryDy=0;" parent="1" target="TAcl22qFRfyfsYqyzIYV-17" edge="1">
          <mxGeometry relative="1" as="geometry">
            <mxPoint x="200" y="140" as="sourcePoint" />
            <mxPoint x="354" y="140" as="targetPoint" />
          </mxGeometry>
        </mxCell>
        <mxCell id="T9GkqMgacALuPG_M4XCp-6" style="edgeStyle=orthogonalEdgeStyle;rounded=0;orthogonalLoop=1;jettySize=auto;html=1;exitX=0;exitY=0.5;exitDx=0;exitDy=0;entryX=1;entryY=0.5;entryDx=0;entryDy=0;" edge="1" parent="1" source="T9GkqMgacALuPG_M4XCp-1" target="T9GkqMgacALuPG_M4XCp-5">
          <mxGeometry relative="1" as="geometry" />
        </mxCell>
        <mxCell id="T9GkqMgacALuPG_M4XCp-11" style="rounded=0;orthogonalLoop=1;jettySize=auto;html=1;exitX=1;exitY=0.5;exitDx=0;exitDy=0;entryX=0;entryY=0.5;entryDx=0;entryDy=0;" edge="1" parent="1" source="T9GkqMgacALuPG_M4XCp-7" target="T9GkqMgacALuPG_M4XCp-10">
          <mxGeometry relative="1" as="geometry" />
        </mxCell>
      </root>
    </mxGraphModel>
  </diagram>
</mxfile>
